<svg width="165" height="35" viewBox="0 0 165 35" fill="none" xmlns="http://www.w3.org/2000/svg">
  <path d="M0.70092 11.8607C8.04663e-08 13.1412 0 14.6859 0 17.7753V19.8288C0 25.0948 1.60933e-07 27.728 1.58162 29.3639C3.16325 31 5.70883 31 10.8 31H16.2C21.2911 31 23.8368 31 25.4183 29.3639C27 27.728 27 25.0948 27 19.8288V17.7753C27 14.6859 27 13.1412 26.2991 11.8607C25.5982 10.5802 24.3177 9.78544 21.7566 8.19596L19.0566 6.52027C16.3493 4.84009 14.9957 4 13.5 4C12.0043 4 10.6507 4.84009 7.94344 6.52027L5.24344 8.19598C2.68238 9.78544 1.40184 10.5802 0.70092 11.8607ZM10.0529 22.0866C9.6037 21.7536 8.96958 21.8478 8.63659 22.2971C8.30361 22.7464 8.39784 23.3805 8.84708 23.7134C10.1598 24.6865 11.7653 25.2625 13.5 25.2625C15.2347 25.2625 16.8402 24.6865 18.1529 23.7134C18.6022 23.3805 18.6964 22.7464 18.3634 22.2971C18.0305 21.8478 17.3964 21.7536 16.9471 22.0866C15.9637 22.8154 14.777 23.2375 13.5 23.2375C12.223 23.2375 11.0363 22.8154 10.0529 22.0866Z" fill="white"/>
  <text x="35" y="27" fill="white" font-size="18" font-family="Arial, sans-serif" font-weight="900">StayEasy</text>
</svg>
